<?xml version="1.0" encoding="UTF-8" standalone="no"?>
<!DOCTYPE svg PUBLIC "-//W3C//DTD SVG 1.1//EN" "http://www.w3.org/Graphics/SVG/1.1/DTD/svg11.dtd">
<svg xmlns="http://www.w3.org/2000/svg" version="1.1" viewBox="0.00 0.00 1314.00 324.00">
<path fill="#ffffff" d="
  M 184.40 54.11
  Q 189.43 60.63 184.76 68.74
  Q 164.85 103.31 144.87 137.86
  C 140.70 145.08 137.84 147.91 129.56 147.94
  Q 88.78 148.07 48.00 148.00
  C 36.61 147.97 30.34 137.64 36.19 127.44
  Q 56.55 91.98 77.06 56.61
  C 81.85 48.35 87.11 48.32 96.06 48.24
  Q 132.90 47.93 169.74 48.05
  C 175.61 48.07 180.74 49.37 184.40 54.11
  Z"
/>
<path fill="#ffffff" d="
  M 335.00 266.04
  C 329.68 266.04 328.01 261.38 328.01 256.94
  Q 327.99 156.82 328.01 56.71
  C 328.01 51.56 329.96 48.02 335.39 48.00
  Q 348.70 47.96 362.01 48.05
  Q 367.91 48.08 367.91 54.75
  Q 367.95 113.00 368.08 171.25
  Q 368.09 172.52 369.16 173.69
  C 372.03 176.81 376.40 175.36 378.81 172.32
  Q 401.17 144.03 423.42 115.67
  C 426.47 111.78 427.84 109.95 433.21 109.97
  Q 446.38 110.03 459.49 109.99
  C 464.78 109.97 469.27 114.08 465.09 119.37
  Q 444.46 145.50 422.78 172.90
  A 3.83 3.83 0.0 0 0 422.31 176.91
  Q 423.51 179.50 425.59 183.17
  Q 446.35 219.76 467.19 256.31
  C 470.52 262.16 467.02 265.96 461.01 265.98
  Q 447.14 266.03 433.25 265.99
  C 427.42 265.97 425.96 262.87 423.44 258.28
  Q 411.33 236.25 399.05 214.31
  A 1.05 1.03 74.4 0 0 398.11 213.77
  L 392.01 213.99
  Q 391.60 214.00 391.36 214.33
  Q 380.15 229.27 368.86 244.14
  C 365.10 249.10 372.83 265.87 361.44 265.95
  Q 348.22 266.05 335.00 266.04
  Z"
/>
<path fill="#ffffff" d="
  M 201.37 82.90
  C 208.04 71.29 219.84 67.81 227.43 81.07
  Q 246.97 115.24 266.55 149.39
  C 269.40 154.34 271.78 158.37 268.80 163.56
  Q 248.65 198.73 228.32 233.80
  Q 224.88 239.75 222.07 241.71
  C 213.54 247.69 206.08 242.26 201.73 234.54
  Q 194.19 221.13 166.09 172.82
  C 160.47 163.14 157.44 159.32 163.03 149.60
  Q 182.21 116.24 201.37 82.90
  Z"
/>
<path fill="#ffffff" d="
  M 980.69 256.06
  C 909.93 210.64 946.16 93.79 1033.95 105.08
  C 1089.08 112.16 1115.77 171.34 1094.99 220.21
  C 1076.02 264.82 1021.75 282.42 980.69 256.06
  Z
  M 1025.53 144.07
  C 989.79 141.49 973.26 180.26 988.17 207.95
  C 1004.50 238.26 1046.82 235.95 1059.46 203.84
  C 1069.79 177.59 1055.77 146.26 1025.53 144.07
  Z"
/>
<path fill="#ffffff" d="
  M 1216.92 264.38
  C 1175.17 278.24 1131.04 255.21 1117.23 213.34
  Q 1108.88 188.02 1116.32 162.05
  C 1138.87 83.27 1252.40 85.72 1269.44 166.76
  C 1278.11 207.96 1258.27 250.66 1216.92 264.38
  Z
  M 1196.34 144.21
  C 1163.59 141.17 1146.54 171.39 1154.52 200.18
  C 1158.59 214.86 1171.62 226.74 1186.80 228.99
  C 1209.48 232.35 1229.49 215.29 1231.80 192.71
  C 1234.26 168.71 1221.76 146.57 1196.34 144.21
  Z"
/>
<path fill="#ffffff" d="
  M 571.25 266.08
  C 531.86 276.35 491.96 252.82 485.07 211.91
  Q 484.03 205.74 484.01 191.98
  Q 483.97 153.37 484.01 115.23
  A 5.22 5.22 0.0 0 1 489.21 110.02
  Q 501.04 109.97 513.50 110.00
  C 516.46 110.01 522.02 109.91 522.02 114.19
  Q 521.95 154.22 522.10 194.24
  C 522.17 212.20 531.30 228.18 550.92 229.38
  C 565.61 230.29 577.69 222.03 581.79 207.83
  Q 582.99 203.70 582.97 195.41
  Q 582.91 156.46 583.29 117.50
  Q 583.33 113.82 584.60 111.45
  A 1.47 1.42 -85.6 0 1 585.37 110.77
  C 590.52 108.84 604.20 109.97 617.00 110.01
  C 620.39 110.02 621.99 113.28 621.99 116.51
  C 622.00 141.61 621.75 166.73 622.27 191.82
  C 623.01 226.90 606.42 256.91 571.25 266.08
  Z"
/>
<path fill="#ffffff" d="
  M 701.25 267.77
  C 663.59 262.75 642.07 231.54 642.02 195.13
  Q 641.97 155.81 642.01 116.50
  C 642.01 110.61 645.59 110.07 650.71 110.03
  Q 663.57 109.93 675.63 110.03
  A 5.42 5.41 -89.8 0 1 681.00 115.45
  Q 680.99 153.29 681.00 191.72
  Q 681.00 201.33 682.05 205.68
  C 689.64 237.10 732.97 237.88 740.80 206.31
  Q 741.94 201.68 741.96 190.46
  Q 742.03 153.95 742.00 117.42
  C 742.00 112.32 743.54 110.04 748.69 110.01
  Q 761.47 109.94 774.23 110.07
  C 779.43 110.12 781.02 112.40 781.02 117.48
  C 780.99 142.09 780.64 166.76 781.23 191.34
  C 781.80 215.05 774.30 238.25 755.05 253.29
  Q 731.36 271.79 701.25 267.77
  Z"
/>
<path fill="#ffffff" d="
  M 855.75 265.98
  C 850.65 265.89 848.81 259.65 847.01 254.54
  Q 844.79 248.21 843.93 245.97
  Q 820.50 184.37 796.97 122.80
  C 795.11 117.94 791.90 110.16 800.95 110.08
  Q 816.26 109.94 831.59 110.01
  C 835.14 110.02 837.02 111.38 838.15 114.58
  Q 851.99 153.79 865.72 193.05
  C 867.13 197.07 873.31 197.06 875.51 194.25
  Q 876.18 193.40 877.83 188.74
  Q 890.33 153.42 902.40 117.97
  C 903.55 114.58 905.16 110.16 909.50 110.10
  Q 924.93 109.87 940.35 110.11
  C 945.62 110.19 948.95 112.62 946.80 118.27
  Q 919.68 189.42 892.58 260.57
  Q 890.58 265.81 885.45 265.87
  Q 862.80 266.11 855.75 265.98
  Z"
/>
<path fill="#ffffff" d="
  M 132.25 168.74
  C 138.04 168.93 142.05 174.02 144.76 178.74
  Q 162.80 210.21 181.00 241.61
  Q 185.77 249.84 186.29 253.82
  C 187.28 261.31 181.35 268.01 173.34 268.01
  Q 131.05 268.00 88.74 267.91
  C 81.13 267.89 79.45 263.95 75.55 257.26
  Q 55.56 222.94 35.76 188.52
  C 29.68 177.94 38.48 168.36 49.51 168.49
  C 81.08 168.87 106.65 167.91 132.25 168.74
  Z"
/>
</svg>
